<?xml version="1.0" encoding="utf-8"?>
<!-- Generator: Adobe Illustrator 17.1.0, SVG Export Plug-In . SVG Version: 6.00 Build 0)  -->
<!DOCTYPE svg PUBLIC "-//W3C//DTD SVG 1.1//EN" "http://www.w3.org/Graphics/SVG/1.1/DTD/svg11.dtd">
<svg version="1.1" id="Layer_1" xmlns="http://www.w3.org/2000/svg" xmlns:xlink="http://www.w3.org/1999/xlink" x="0px" y="0px"
	 width="240px" height="500px" viewBox="0 0 240 500" enable-background="new 0 0 240 500" xml:space="preserve">
<g id="Layer_2_1_">
</g>
<g>
	<polygon fill="#44B449" points="48,280.8 48,288.4 56.5,296 73,281.2 73,273 56.5,287.9 	"/>
</g>
<g>
	<polygon fill="#44B449" points="22.4,324 22.4,327.5 26.5,331.1 33.4,324.9 33.4,321.1 26.5,327.3 	"/>
</g>
<g>
	<polygon fill="#C0C0C0" points="8,280.8 8,288.4 16.6,296 33,281.2 33,273 16.6,287.9 	"/>
</g>
<polygon fill="#FE7A16" points="45,191 74,191 59.6,176 "/>
<polygon fill="#818185" points="5,191 34,191 19.5,176 "/>
<polygon fill="#FE7A16" points="59.6,243 74,228 45,228 "/>
<polygon fill="#FE7A16" points="6.5,322.3 0,329.3 13,329.3 "/>
<polygon fill="#818185" points="7.2,386.5 0.2,380 0.2,393 "/>
<polygon fill="#818185" points="54.1,473.6 47.1,467.2 47.1,480.2 "/>
<polygon fill="#818185" points="6.5,473.7 13.5,480.2 13.5,467.2 "/>
<polygon fill="#818185" points="26.8,390 33.2,383 20.2,383 "/>
<polygon fill="#B8B8B8" points="6.5,341.3 0,348.3 13,348.3 "/>
<polygon fill="#818185" points="19.5,243 34,228 5,228 "/>
<g>
	<polygon fill="#FFD83D" points="59.6,137.8 52.9,142.7 55.3,134.6 48.7,129.8 57,129.8 59.6,121.7 62.2,129.8 70.5,129.8 
		63.9,134.6 66.3,142.7 	"/>
	<path fill="#EAC328" d="M59.6,123.4l2,6.1l0.2,0.7h0.7h6.3l-5.3,3.8l-0.6,0.4l0.2,0.7l2,6.1l-5.3-3.8l-0.6-0.4l-0.6,0.4l-5.3,3.8
		l2-6.1l0.2-0.7l-0.6-0.4l-5.3-3.8h6.3h0.7l0.2-0.7L59.6,123.4 M59.6,120l-3,9.1H47l7.7,5.7l-3,9.1l7.7-5.7l7.7,5.7l-3-9.1l7.7-5.7
		h-9.6L59.6,120L59.6,120z"/>
</g>
<g>
	<polygon fill="#C0C0C0" points="19.5,120 22.4,129.2 32,129.2 24.3,134.8 27.3,144 19.5,138.3 11.7,144 14.7,134.8 7,129.2 
		16.6,129.2 	"/>
</g>
<circle fill="#CC9966" cx="65" cy="405" r="3"/>
<circle fill="#C5C5C5" cx="85" cy="405" r="3"/>
<circle fill="#FFCC00" cx="105" cy="405" r="3"/>
<rect x="47.2" y="367" fill="#9E9E9E" width="2" height="2"/>
<rect x="50.2" y="370" fill="#9E9E9E" width="2" height="2"/>
<rect x="56.2" y="370" fill="#9E9E9E" width="2" height="2"/>
<rect x="62.2" y="370" fill="#9E9E9E" width="2" height="2"/>
<rect x="68.2" y="370" fill="#9E9E9E" width="2" height="2"/>
<rect x="53.3" y="367" fill="#9E9E9E" width="2" height="2"/>
<rect x="59.3" y="367" fill="#9E9E9E" width="2" height="2"/>
<rect x="65.3" y="367" fill="#9E9E9E" width="2" height="2"/>
<rect x="71.4" y="367" fill="#9E9E9E" width="2" height="2"/>
<g>
	<path fill="#C5C5C5" d="M0.2,400v31h3.4c0.3-5.5,3.7-10.1,8.3-11.8V418c-1.8-1.2-3-3.3-3-5.6c0-3.7,3-6.7,6.8-6.7s6.8,3,6.8,6.7
		c0,2.3-1.2,4.4-3,5.6v1.2c4.6,1.7,8,6.3,8.3,11.8h3.4v-31H0.2z"/>
	<path fill="#FFFFFF" d="M3.7,431H28c-0.3-5.5-3.7-10.1-8.3-11.8V418c1.8-1.2,3-3.3,3-5.6c0-3.7-3-6.7-6.8-6.7s-6.8,3-6.8,6.7
		c0,2.3,1.2,4.4,3,5.6v1.2C7.5,420.9,4,425.5,3.7,431z"/>
</g>
<g>
	<rect x="60.3" y="340" fill="#B8B8B8" width="1.9" height="14"/>
	<rect x="63.2" y="341" fill="#CCCCCC" width="10.1" height="8"/>
</g>
<g>
	<rect x="60.3" y="320.1" fill="#D35F5F" width="1.9" height="14"/>
	<rect x="63.2" y="321.1" fill="#F89393" width="10.1" height="8"/>
</g>
<g>
	<rect x="80.3" y="320.1" fill="#FE6502" width="14" height="14"/>
	<path fill="#FFFFFF" d="M83.5,329.5c-0.8,0-1.4,0.6-1.4,1.4s0.6,1.4,1.4,1.4s1.4-0.6,1.4-1.4C84.9,330.2,84.3,329.5,83.5,329.5z
		 M82.1,325.5v2c1.3,0,2.5,0.5,3.4,1.4s1.4,2.1,1.4,3.4h2C89,328.5,85.9,325.5,82.1,325.5z M82.1,321.9v2c4.6,0,8.4,3.8,8.4,8.4h2
		C92.5,326.6,87.8,321.9,82.1,321.9z"/>
</g>
<g>
	<polygon fill="#7A7A7A" points="22.6,347.1 21.9,350.3 25.1,349.6 	"/>
	
		<rect x="24.6" y="343.3" transform="matrix(-0.7071 -0.7071 0.7071 -0.7071 -199.5102 609.0368)" fill="#7A7A7A" width="3.5" height="5.1"/>
	<path fill="#7A7A7A" d="M29.1,341.3c-0.4,0-0.8,0.1-1.1,0.4l-0.7,0.7l2.5,2.5l0.7-0.7c0.2-0.3,0.4-0.7,0.4-1.1
		C30.9,342.1,30.1,341.3,29.1,341.3z"/>
</g>
<g>
	<circle fill="#C03433" cx="107" cy="451.8" r="6.5"/>
	<path fill="#FFFFFF" d="M110.2,453.7L110.2,453.7l-1.9-1.9l1.9-1.9l0,0c0,0,0,0,0-0.1s0-0.2,0-0.2l-0.9-0.9c-0.1-0.1-0.1-0.1-0.2,0
		H109l0,0l-1.9,1.9l-1.9-1.9l0,0c0,0,0,0-0.1,0s-0.2,0-0.2,0l-0.9,0.9c-0.1,0.1-0.1,0.1,0,0.2v0.1l0,0l1.9,1.9l-1.9,1.9l0,0
		c0,0,0,0,0,0.1s0,0.2,0,0.2l0.9,0.9c0.1,0.1,0.1,0.1,0.2,0h0.1l0,0l1.9-1.9l1.9,1.9l0,0c0,0,0,0,0.1,0s0.2,0,0.2,0l0.9-0.9
		C110.2,454,110.2,453.9,110.2,453.7C110.2,453.8,110.2,453.8,110.2,453.7z"/>
</g>
<g>
	<circle fill="#C03433" cx="47.2" cy="346.9" r="6.5"/>
	<path fill="#FFFFFF" d="M50.4,348.8L50.4,348.8l-1.9-1.9l1.9-1.9l0,0c0,0,0,0,0-0.1s0-0.2,0-0.2l-0.9-0.9c-0.1-0.1-0.1-0.1-0.2,0
		h-0.1l0,0l-1.9,1.9l-1.9-1.9l0,0c0,0,0,0-0.1,0s-0.2,0-0.2,0l-0.9,0.9c-0.1,0.1-0.1,0.1,0,0.2v0.1l0,0l1.9,1.9l-1.9,1.9l0,0
		c0,0,0,0,0,0.1s0,0.2,0,0.2l0.9,0.9c0.1,0.1,0.1,0.1,0.2,0h0.1l0,0l1.9-1.9l1.9,1.9l0,0c0,0,0,0,0.1,0s0.2,0,0.2,0l0.9-0.9
		C50.4,349,50.4,348.9,50.4,348.8C50.4,348.9,50.4,348.8,50.4,348.8z"/>
</g>
<g>
	<circle fill="#CCCCCC" cx="47.2" cy="326.1" r="6.5"/>
	<path fill="#FFFFFF" d="M50.4,328.1L50.4,328.1l-1.9-1.9l1.9-1.9l0,0c0,0,0,0,0-0.1s0-0.2,0-0.2l-0.9-0.9c-0.1-0.1-0.1-0.1-0.2,0
		h-0.1l0,0l-2,1.8l-1.9-1.9l0,0c0,0,0,0-0.1,0s-0.2,0-0.2,0l-0.9,0.9c-0.1,0.1-0.1,0.1,0,0.2v0.1l0,0l1.9,1.9l-1.9,1.9l0,0
		c0,0,0,0,0,0.1s0,0.2,0,0.2l0.9,0.9c0.1,0.1,0.1,0.1,0.2,0h0.1l0,0l1.9-1.9l1.9,1.9l0,0c0,0,0,0,0.1,0s0.2,0,0.2,0l0.9-0.9
		C50.4,328.3,50.4,328.2,50.4,328.1L50.4,328.1z"/>
</g>
<g>
	<path d="M41.8,45c-2.3,0-4.1-0.5-5.6-2l1.3-1.3c1.1,1.1,2.6,1.6,4.3,1.6c2.3,0,3.7-0.8,3.7-2.4c0-1.2-0.7-1.9-2.3-2l-2.3-0.2
		c-2.7-0.2-4.1-1.4-4.1-3.7c0-2.5,2.1-4,5-4c2,0,3.7,0.5,4.9,1.5l-1.3,1.3c-1-0.8-2.2-1.1-3.7-1.1c-2,0-3.1,0.9-3.1,2.3
		c0,1.2,0.7,1.9,2.4,2l2.2,0.2c2.4,0.2,4,1.1,4,3.7C47.4,43.5,45.1,45,41.8,45z"/>
	<path d="M53.5,44.8c-2.3,0-3.5-1.6-3.5-3.7v-8.4h-1.7v-1.5H50v-4.3h2v4.3h2.9v1.5H52v8.4c0,1.3,0.6,2,1.9,2H55v1.7H53.5z"/>
	<path d="M65.3,44.8v-1.3c-1.1,1.1-2.1,1.5-4,1.5s-3-0.4-3.9-1.3c-0.7-0.7-1-1.7-1-2.8c0-2.4,1.7-4,4.7-4h4.1v-1.3c0-2-1-3-3.5-3
		c-1.8,0-2.6,0.4-3.5,1.6L57,33c1.2-1.6,2.6-2,4.8-2c3.7,0,5.5,1.6,5.5,4.6v9.3L65.3,44.8L65.3,44.8z M65.3,38.5h-3.8
		c-2.1,0-3.1,0.8-3.1,2.4c0,1.6,1,2.3,3.1,2.3c1.2,0,2.2-0.1,3.1-0.9c0.5-0.4,0.7-1.2,0.7-2.4V38.5z"/>
	<path d="M75.1,45c-3.5,0-6.1-2.3-6.1-7s2.6-7,6.1-7c1.9,0,3.1,0.5,4.5,2l-1.4,1.3c-1-1.1-1.8-1.5-3.1-1.5c-1.3,0-2.5,0.5-3.2,1.6
		c-0.6,0.9-0.9,2-0.9,3.7s0.3,2.8,0.9,3.7c0.7,1,1.8,1.6,3.2,1.6c1.3,0,2.1-0.4,3.1-1.6l1.4,1.3C78.2,44.5,77,45,75.1,45z"/>
	<path d="M90.6,44.8l-4.3-7l-2.7,3.1v4h-2V25h2v13.3l6.2-7.1h2.5l-4.7,5.2l5.5,8.5L90.6,44.8L90.6,44.8z"/>
	<path d="M103.8,43.3c-0.8,0.9-2.2,1.7-4.3,1.7c-2,0-3.4-0.8-4.3-1.7c-1.2-1.3-1.6-2.9-1.6-5.4s0.3-4,1.6-5.3
		c0.8-0.9,2.2-1.7,4.3-1.7c2,0,3.4,0.8,4.3,1.7c1.2,1.3,1.6,2.9,1.6,5.3C105.4,40.5,105,42,103.8,43.3z M101.1,34.6
		c-0.4-0.4-0.9-0.6-1.6-0.6s-1.2,0.2-1.6,0.6c-0.7,0.7-0.8,1.9-0.8,3.3c0,1.4,0.1,2.6,0.8,3.4c0.4,0.4,0.9,0.6,1.6,0.6
		s1.2-0.2,1.6-0.6c0.7-0.7,0.8-1.9,0.8-3.4C101.9,36.5,101.9,35.3,101.1,34.6z"/>
	<path d="M113.1,44.8h-2.7l-5.1-13.7h3.6l2.8,8.5l2.8-8.5h3.6L113.1,44.8z"/>
	<path d="M121.4,39c0,1.8,1.1,3.1,3,3.1c1.5,0,2.2-0.4,3.1-1.3l2.1,2c-1.4,1.4-2.7,2.2-5.2,2.2c-3.2,0-6.4-1.5-6.4-7.1
		c0-4.5,2.4-7,6-7c3.8,0,6,2.8,6,6.6V39H121.4z M126.3,35.2c-0.4-0.8-1.1-1.4-2.3-1.4c-1.2,0-1.9,0.6-2.3,1.4
		c-0.2,0.5-0.3,0.9-0.3,1.5h5.2C126.6,36.1,126.5,35.7,126.3,35.2z"/>
	<path d="M139.2,34.8c-0.5-0.5-1-0.8-1.8-0.8c-1.1,0-2.2,0.8-2.2,2.5v8.3h-3.4V31.1h3.4v1.3c0.7-0.8,2-1.5,3.5-1.5
		c1.3,0,2.3,0.3,3.2,1.3L139.2,34.8z"/>
	<path d="M147.5,33.7v11.1h-3.4V33.7h-1.4v-2.6h1.4v-1.7c0-2,1.2-3.9,4-3.9h2v2.9h-1.3c-0.8,0-1.2,0.4-1.2,1.2v1.5h2.5v2.6H147.5z
		 M155.6,44.8c-2.8,0-4-2-4-3.9V25.4h3.4v15.2c0,0.8,0.3,1.2,1.2,1.2h1.3v2.9L155.6,44.8z"/>
	<path d="M168.2,43.3c-0.8,0.9-2.2,1.7-4.3,1.7c-2,0-3.4-0.8-4.3-1.7c-1.2-1.3-1.6-2.9-1.6-5.4s0.3-4,1.6-5.3
		c0.8-0.9,2.2-1.7,4.3-1.7c2,0,3.4,0.8,4.3,1.7c1.2,1.3,1.6,2.9,1.6,5.3C169.7,40.5,169.4,42,168.2,43.3z M165.5,34.6
		c-0.4-0.4-0.9-0.6-1.6-0.6s-1.2,0.2-1.6,0.6c-0.7,0.7-0.8,1.9-0.8,3.3c0,1.4,0.1,2.6,0.8,3.4c0.4,0.4,0.9,0.6,1.6,0.6
		s1.2-0.2,1.6-0.6c0.7-0.7,0.8-1.9,0.8-3.4C166.3,36.5,166.2,35.3,165.5,34.6z"/>
	<path d="M185.1,44.8h-2.8l-2.9-8.6l-2.9,8.6h-2.8l-4.2-13.7h3.6l2.2,8.5l2.8-8.5h2.5l2.8,8.5l2.2-8.5h3.6L185.1,44.8z"/>
</g>
<rect x="6" y="38.9" fill="#818185" width="17" height="3"/>
<polygon fill="#818185" points="26,30.9 26,44.9 3,44.9 3,30.9 0,30.9 0,47.9 0,47.9 29,47.9 29,30.9 "/>
<rect x="6.2" y="33.5" transform="matrix(0.9958 9.192543e-02 -9.192543e-02 0.9958 3.2793 -1.193)" fill="#A68A6E" width="16.8" height="3"/>
<polygon fill="#BF9452" points="23.2,32.9 6.9,28.9 7.6,25.9 23.9,30 "/>
<polygon fill="#D28B29" points="24.3,28.2 9.6,20.7 11,18.2 25.6,25.7 "/>
<polygon fill="#F68A1F" points="26.7,24.7 13.7,13.9 15.7,11.7 28.7,22.4 "/>
<polygon fill="#F47920" points="29.6,21 20.1,7.6 22.5,6 32.1,19.4 "/>
</svg>
